<svg xmlns="http://www.w3.org/2000/svg" viewBox="0 0 775 300" width="100%" role="img" aria-label="Self-attention over a Somali sentence"><style>.at{font-family:'Segoe UI', Roboto, 'Helvetica Neue', system-ui, -apple-system, sans-serif;}.arc{stroke:url(#attArc);fill:none;stroke-dasharray:5 7;animation:aflow 1.2s linear infinite;}@keyframes aflow{to{stroke-dashoffset:-24;}}.qg{opacity:0;animation:qslot 14.0s ease-in-out infinite;}@keyframes qslot{0%{opacity:0}1.5%{opacity:1}13.1%{opacity:1}14.3%{opacity:0}100%{opacity:0}}.pill{animation:ppulse 3.4s ease-in-out infinite;transform-origin:center;}@keyframes ppulse{0%,100%{opacity:.82}50%{opacity:1}}</style><defs><linearGradient id="attArc" x1="0" y1="0" x2="1" y2="0"><stop offset="0%" stop-color="#06B6D4"/><stop offset="100%" stop-color="#8B5CF6"/></linearGradient><filter id="aglow" x="-60%" y="-60%" width="220%" height="220%"><feGaussianBlur stdDeviation="2.4"/></filter></defs><rect width="775" height="300" fill="#0D1117" rx="14"/><g class="pill" style="animation-delay:0.0s"><rect x="64" y="214" width="82" height="46" rx="12" fill="#11161D" stroke="#222a35" stroke-width="1"/><text class="at" x="105" y="244" text-anchor="middle" font-size="18" font-weight="600" fill="#FFFFFF">Aniga</text><circle cx="105" cy="214" r="2.6" fill="#06B6D4"/></g><g class="pill" style="animation-delay:-0.4s"><rect x="160" y="214" width="91" height="46" rx="12" fill="#11161D" stroke="#222a35" stroke-width="1"/><text class="at" x="206" y="244" text-anchor="middle" font-size="18" font-weight="600" fill="#FFFFFF">waxaan</text><circle cx="206" cy="214" r="2.6" fill="#06B6D4"/></g><g class="pill" style="animation-delay:-0.8s"><rect x="265" y="214" width="119" height="46" rx="12" fill="#11161D" stroke="#222a35" stroke-width="1"/><text class="at" x="324" y="244" text-anchor="middle" font-size="18" font-weight="600" fill="#FFFFFF">baranayaa</text><circle cx="324" cy="214" r="2.6" fill="#06B6D4"/></g><g class="pill" style="animation-delay:-1.2s"><rect x="398" y="214" width="54" height="46" rx="12" fill="#11161D" stroke="#222a35" stroke-width="1"/><text class="at" x="425" y="244" text-anchor="middle" font-size="18" font-weight="600" fill="#FFFFFF">AI</text><circle cx="425" cy="214" r="2.6" fill="#06B6D4"/></g><g class="pill" style="animation-delay:0.0s"><rect x="466" y="214" width="63" height="46" rx="12" fill="#11161D" stroke="#222a35" stroke-width="1"/><text class="at" x="498" y="244" text-anchor="middle" font-size="18" font-weight="600" fill="#FFFFFF">iyo</text><circle cx="498" cy="214" r="2.6" fill="#06B6D4"/></g><g class="pill" style="animation-delay:-0.4s"><rect x="543" y="214" width="91" height="46" rx="12" fill="#11161D" stroke="#222a35" stroke-width="1"/><text class="at" x="588" y="244" text-anchor="middle" font-size="18" font-weight="600" fill="#FFFFFF">Somali</text><circle cx="588" cy="214" r="2.6" fill="#06B6D4"/></g><g class="pill" style="animation-delay:-0.8s"><rect x="648" y="214" width="63" height="46" rx="12" fill="#11161D" stroke="#222a35" stroke-width="1"/><text class="at" x="680" y="244" text-anchor="middle" font-size="18" font-weight="600" fill="#FFFFFF">NLP</text><circle cx="680" cy="214" r="2.6" fill="#06B6D4"/></g><g class="qg" style="animation-delay:0.0s"><path class="arc" d="M105.0 214 Q155.2 157.9 205.5 214" stroke-width="3.1" opacity="0.63" style="animation-delay:-0.24s"/><path class="arc" d="M105.0 214 Q214.8 126.9 324.5 214" stroke-width="2.4" opacity="0.81" style="animation-delay:-0.48s"/><path class="arc" d="M105.0 214 Q265.0 100.8 425.0 214" stroke-width="1.7" opacity="0.45" style="animation-delay:-0.72s"/><path class="arc" d="M105.0 214 Q301.2 82.0 497.5 214" stroke-width="1.0" opacity="0.63" style="animation-delay:-0.96s"/><path class="arc" d="M105.0 214 Q346.8 58.3 588.5 214" stroke-width="3.1" opacity="0.81" style="animation-delay:0.0s"/><path class="arc" d="M105.0 214 Q392.2 34.6 679.5 214" stroke-width="2.4" opacity="0.45" style="animation-delay:-0.24s"/><rect x="64" y="214" width="82" height="46" rx="12" fill="none" stroke="#10B981" stroke-width="2" filter="url(#aglow)"/></g><g class="qg" style="animation-delay:2.0s"><path class="arc" d="M205.5 214 Q155.2 157.9 105.0 214" stroke-width="1.7" opacity="0.63" style="animation-delay:0.0s"/><path class="arc" d="M205.5 214 Q265.0 153.1 324.5 214" stroke-width="3.1" opacity="0.45" style="animation-delay:-0.48s"/><path class="arc" d="M205.5 214 Q315.2 126.9 425.0 214" stroke-width="2.4" opacity="0.63" style="animation-delay:-0.72s"/><path class="arc" d="M205.5 214 Q351.5 108.1 497.5 214" stroke-width="1.7" opacity="0.81" style="animation-delay:-0.96s"/><path class="arc" d="M205.5 214 Q397.0 84.4 588.5 214" stroke-width="1.0" opacity="0.45" style="animation-delay:0.0s"/><path class="arc" d="M205.5 214 Q442.5 60.8 679.5 214" stroke-width="3.1" opacity="0.63" style="animation-delay:-0.24s"/><rect x="160" y="214" width="91" height="46" rx="12" fill="none" stroke="#10B981" stroke-width="2" filter="url(#aglow)"/></g><g class="qg" style="animation-delay:4.0s"><path class="arc" d="M324.5 214 Q214.8 126.9 105.0 214" stroke-width="2.4" opacity="0.81" style="animation-delay:0.0s"/><path class="arc" d="M324.5 214 Q265.0 153.1 205.5 214" stroke-width="1.7" opacity="0.45" style="animation-delay:-0.24s"/><path class="arc" d="M324.5 214 Q374.8 157.9 425.0 214" stroke-width="3.1" opacity="0.81" style="animation-delay:-0.72s"/><path class="arc" d="M324.5 214 Q411.0 139.0 497.5 214" stroke-width="2.4" opacity="0.45" style="animation-delay:-0.96s"/><path class="arc" d="M324.5 214 Q456.5 115.4 588.5 214" stroke-width="1.7" opacity="0.63" style="animation-delay:0.0s"/><path class="arc" d="M324.5 214 Q502.0 91.7 679.5 214" stroke-width="1.0" opacity="0.81" style="animation-delay:-0.24s"/><rect x="265" y="214" width="119" height="46" rx="12" fill="none" stroke="#10B981" stroke-width="2" filter="url(#aglow)"/></g><g class="qg" style="animation-delay:6.0s"><path class="arc" d="M425.0 214 Q265.0 100.8 105.0 214" stroke-width="3.1" opacity="0.45" style="animation-delay:0.0s"/><path class="arc" d="M425.0 214 Q315.2 126.9 205.5 214" stroke-width="2.4" opacity="0.63" style="animation-delay:-0.24s"/><path class="arc" d="M425.0 214 Q374.8 157.9 324.5 214" stroke-width="1.7" opacity="0.81" style="animation-delay:-0.48s"/><path class="arc" d="M425.0 214 Q461.2 165.2 497.5 214" stroke-width="3.1" opacity="0.63" style="animation-delay:-0.96s"/><path class="arc" d="M425.0 214 Q506.8 141.5 588.5 214" stroke-width="2.4" opacity="0.81" style="animation-delay:0.0s"/><path class="arc" d="M425.0 214 Q552.2 117.8 679.5 214" stroke-width="1.7" opacity="0.45" style="animation-delay:-0.24s"/><rect x="398" y="214" width="54" height="46" rx="12" fill="none" stroke="#10B981" stroke-width="2" filter="url(#aglow)"/></g><g class="qg" style="animation-delay:8.0s"><path class="arc" d="M497.5 214 Q301.2 82.0 105.0 214" stroke-width="1.0" opacity="0.63" style="animation-delay:0.0s"/><path class="arc" d="M497.5 214 Q351.5 108.1 205.5 214" stroke-width="3.1" opacity="0.81" style="animation-delay:-0.24s"/><path class="arc" d="M497.5 214 Q411.0 139.0 324.5 214" stroke-width="2.4" opacity="0.45" style="animation-delay:-0.48s"/><path class="arc" d="M497.5 214 Q461.2 165.2 425.0 214" stroke-width="1.7" opacity="0.63" style="animation-delay:-0.72s"/><path class="arc" d="M497.5 214 Q543.0 160.3 588.5 214" stroke-width="3.1" opacity="0.45" style="animation-delay:0.0s"/><path class="arc" d="M497.5 214 Q588.5 136.7 679.5 214" stroke-width="2.4" opacity="0.63" style="animation-delay:-0.24s"/><rect x="466" y="214" width="63" height="46" rx="12" fill="none" stroke="#10B981" stroke-width="2" filter="url(#aglow)"/></g><g class="qg" style="animation-delay:10.0s"><path class="arc" d="M588.5 214 Q346.8 58.3 105.0 214" stroke-width="1.7" opacity="0.81" style="animation-delay:0.0s"/><path class="arc" d="M588.5 214 Q397.0 84.4 205.5 214" stroke-width="1.0" opacity="0.45" style="animation-delay:-0.24s"/><path class="arc" d="M588.5 214 Q456.5 115.4 324.5 214" stroke-width="3.1" opacity="0.63" style="animation-delay:-0.48s"/><path class="arc" d="M588.5 214 Q506.8 141.5 425.0 214" stroke-width="2.4" opacity="0.81" style="animation-delay:-0.72s"/><path class="arc" d="M588.5 214 Q543.0 160.3 497.5 214" stroke-width="1.7" opacity="0.45" style="animation-delay:-0.96s"/><path class="arc" d="M588.5 214 Q634.0 160.3 679.5 214" stroke-width="3.1" opacity="0.81" style="animation-delay:-0.24s"/><rect x="543" y="214" width="91" height="46" rx="12" fill="none" stroke="#10B981" stroke-width="2" filter="url(#aglow)"/></g><g class="qg" style="animation-delay:12.0s"><path class="arc" d="M679.5 214 Q392.2 34.6 105.0 214" stroke-width="2.4" opacity="0.45" style="animation-delay:0.0s"/><path class="arc" d="M679.5 214 Q442.5 60.8 205.5 214" stroke-width="1.7" opacity="0.63" style="animation-delay:-0.24s"/><path class="arc" d="M679.5 214 Q502.0 91.7 324.5 214" stroke-width="1.0" opacity="0.81" style="animation-delay:-0.48s"/><path class="arc" d="M679.5 214 Q552.2 117.8 425.0 214" stroke-width="3.1" opacity="0.45" style="animation-delay:-0.72s"/><path class="arc" d="M679.5 214 Q588.5 136.7 497.5 214" stroke-width="2.4" opacity="0.63" style="animation-delay:-0.96s"/><path class="arc" d="M679.5 214 Q634.0 160.3 588.5 214" stroke-width="1.7" opacity="0.81" style="animation-delay:0.0s"/><rect x="648" y="214" width="63" height="46" rx="12" fill="none" stroke="#10B981" stroke-width="2" filter="url(#aglow)"/></g><text class="at" x="387" y="296" text-anchor="middle" font-size="14" font-style="italic" fill="#8B949E">“I am learning AI and Somali NLP”</text></svg>